<svg width="141" height="157" version="1.1" xmlns="http://www.w3.org/2000/svg" desc="Created with imagetracer.js version 1.2.6" ><path fill="rgb(194,197,196)" stroke="rgb(194,197,196)" stroke-width="1" opacity="1" d="M 65.5 29 L 70 29.5 L 65.5 30 L 65.5 29 Z " /><path fill="rgb(194,197,196)" stroke="rgb(194,197,196)" stroke-width="1" opacity="1" d="M 76.5 29 L 81 29.5 L 76.5 30 L 76.5 29 Z " /><path fill="rgb(194,197,196)" stroke="rgb(194,197,196)" stroke-width="1" opacity="1" d="M 84.5 30 L 87 30.5 L 84.5 31 L 84.5 30 Z " /><path fill="rgb(194,197,196)" stroke="rgb(194,197,196)" stroke-width="1" opacity="1" d="M 40.5 38 L 39.5 40 L 40.5 38 Z " /><path fill="rgb(194,197,196)" stroke="rgb(194,197,196)" stroke-width="1" opacity="1" d="M 106.5 39 L 108.5 42 L 106.5 39 Z " /><path fill="rgb(194,197,196)" stroke="rgb(194,197,196)" stroke-width="1" opacity="1" d="M 36.5 41 L 29.5 49 L 36.5 41 Z " /><path fill="rgb(194,197,196)" stroke="rgb(194,197,196)" stroke-width="1" opacity="1" d="M 113.5 46 L 114 47.5 L 109 51.5 L 113.5 46 Z " /><path fill="rgb(194,197,196)" stroke="rgb(194,197,196)" stroke-width="1" opacity="1" d="M 78.5 49 L 82 49.5 L 78.5 50 L 78.5 49 Z " /><path fill="rgb(194,197,196)" stroke="rgb(194,197,196)" stroke-width="1" opacity="1" d="M 54.5 54 L 52.5 57 L 54.5 54 Z " /><path fill="rgb(194,197,196)" stroke="rgb(194,197,196)" stroke-width="1" opacity="1" d="M 92.5 54 L 93.5 56 L 92.5 54 Z " /><path fill="rgb(194,197,196)" stroke="rgb(194,197,196)" stroke-width="1" opacity="1" d="M 101.5 58 L 99.5 61 L 101.5 58 Z " /><path fill="rgb(194,197,196)" stroke="rgb(194,197,196)" stroke-width="1" opacity="1" d="M 49.5 59 L 48.5 61 L 49.5 59 Z " /><path fill="rgb(194,197,196)" stroke="rgb(194,197,196)" stroke-width="1" opacity="1" d="M 18.5 75 L 19 87.5 L 18 87.5 L 18.5 75 Z " /><path fill="rgb(194,197,196)" stroke="rgb(194,197,196)" stroke-width="1" opacity="1" d="M 41.5 79 L 42 82.5 L 41 82.5 L 41.5 79 Z " /><path fill="rgb(194,197,196)" stroke="rgb(194,197,196)" stroke-width="1" opacity="1" d="M 48.5 102 L 49.5 104 L 48.5 102 Z " /><path fill="rgb(194,197,196)" stroke="rgb(194,197,196)" stroke-width="1" opacity="1" d="M 99.5 102 L 101.5 105 L 99.5 102 Z " /><path fill="rgb(194,197,196)" stroke="rgb(194,197,196)" stroke-width="1" opacity="1" d="M 52.5 106 L 53.5 108 L 52.5 106 Z " /><path fill="rgb(194,197,196)" stroke="rgb(194,197,196)" stroke-width="1" opacity="1" d="M 109.5 111 L 114 116.5 L 112 117.5 L 113 115.5 L 109.5 111 Z " /><path fill="rgb(194,197,196)" stroke="rgb(194,197,196)" stroke-width="1" opacity="1" d="M 78.5 113 L 81 113.5 L 78.5 114 L 78.5 113 Z " /><path fill="rgb(194,197,196)" stroke="rgb(194,197,196)" stroke-width="1" opacity="1" d="M 29.5 114 L 32.5 118 L 29.5 114 Z " /><path fill="rgb(194,197,196)" stroke="rgb(194,197,196)" stroke-width="1" opacity="1" d="M 35.5 120 L 37.5 123 L 35.5 120 Z " /><path fill="rgb(194,197,196)" stroke="rgb(194,197,196)" stroke-width="1" opacity="1" d="M 109.5 120 L 106.5 124 L 109.5 120 Z " /><path fill="rgb(194,197,196)" stroke="rgb(194,197,196)" stroke-width="1" opacity="1" d="M 64.5 133 L 70 133.5 L 64.5 134 L 64.5 133 Z " /><path fill="rgb(194,197,196)" stroke="rgb(194,197,196)" stroke-width="1" opacity="1" d="M 74.5 133 L 79 133.5 L 74.5 134 L 74.5 133 Z " /><path fill="rgb(5,23,18)" stroke="rgb(5,23,18)" stroke-width="1" opacity="1" d="M 0.5 35 L 7 35.5 L 2 36.5 L 4 37.5 L 0.5 38 L 0.5 35 Z " /><path fill="rgb(5,23,18)" stroke="rgb(5,23,18)" stroke-width="1" opacity="1" d="M 9 35 L 44 35.5 L 40.5 38 L 6.5 38 L 6.5 37 Q 10.3 38 9 35 Z M 11 36 L 11 37 L 17 37 L 11 36 Z M 19 36 L 19 37 L 25 37 L 19 36 Z M 27 36 L 27 37 L 33 37 L 27 36 Z M 35 36 L 35 37 L 41 37 L 35 36 Z " /><path fill="rgb(5,23,18)" stroke="rgb(5,23,18)" stroke-width="1" opacity="1" d="M 102.5 35 L 107 35.5 L 106.5 37 L 113 36.5 L 109 35.5 L 140.5 35 L 140.5 36 L 138 36.5 L 141 37.5 L 106.5 38 L 102.5 36 L 102.5 35 Z M 115 36 L 115 37 L 121 37 L 115 36 Z M 123 36 L 123 37 L 129 37 L 123 36 Z M 131 36 L 131 37 L 137 37 L 131 36 Z " /><path fill="rgb(5,23,18)" stroke="rgb(5,23,18)" stroke-width="1" opacity="1" d="M 2.5 39 L 38 39.5 L 34 40.5 L 34.5 42 L 0 41.5 L 2.5 39 Z M 3 40 L 3 41 L 5 41 L 3 40 Z M 7 40 L 7 41 L 9 41 L 7 40 Z M 11 40 L 11 41 L 13 41 L 11 40 Z M 15 40 L 15 41 L 17 41 L 15 40 Z M 19 40 L 19 41 L 21 41 L 19 40 Z M 23 40 L 23 41 L 25 41 L 23 40 Z M 27 40 L 27 41 L 29 41 L 27 40 Z M 31 40 L 31 41 L 33 41 L 31 40 Z " /><path fill="rgb(5,23,18)" stroke="rgb(5,23,18)" stroke-width="1" opacity="1" d="M 108.5 39 L 141 39.5 L 138 40.5 L 141 41.5 L 110.5 42 L 108.5 39 Z M 111 40 L 111 41 L 113 41 L 111 40 Z M 115 40 L 115 41 L 117 41 L 115 40 Z M 119 40 L 119 41 L 121 41 L 119 40 Z M 123 40 L 123 41 L 125 41 L 123 40 Z M 127 40 L 127 41 L 129 41 L 127 40 Z M 131 40 L 131 41 L 133 41 L 131 40 Z M 135 40 L 135 41 L 137 41 L 135 40 Z " /><path fill="rgb(5,23,18)" stroke="rgb(5,23,18)" stroke-width="1" opacity="1" d="M 0.5 43 L 33 43.5 L 28 50 L 26 50.5 L 27 51.5 L 22.5 56 L 21 55.5 Q 21.8 57.8 19.5 57 L 17.5 59 L 0 59 L 0 51.5 L 1 50.5 L 0.5 43 Z M 3 46 L 3 47 L 5 47 L 3 46 Z M 7 46 L 7 47 L 9 47 L 7 46 Z M 11 46 L 11 47 L 13 47 L 11 46 Z M 15 46 L 15 47 L 17 47 L 15 46 Z M 19 46 L 19 47 L 21 47 L 19 46 Z M 23 46 L 23 47 L 25 47 L 23 46 Z M 27 46 L 27 47 L 29 47 L 27 46 Z " /><path fill="rgb(5,23,18)" stroke="rgb(5,23,18)" stroke-width="1" opacity="1" d="M 112.5 43 L 141 43.5 L 140 46 L 137 47.5 L 139 48.5 Q 138.3 46.3 140.5 47 L 141 51.5 L 141 59 L 120.5 59 L 120.5 58 L 123 56.5 L 121 55.5 Q 121.8 57.8 119.5 57 L 117.5 59 L 103.5 59 L 110.5 51 L 113 50.5 L 112.5 49 L 115 49 Q 113.9 46.3 116.5 47 L 116.5 46 Q 111.8 46.5 112.5 43 Z M 119 46 L 119 47 L 121 47 L 119 46 Z M 123 46 L 123 47 L 125 47 L 123 46 Z M 127 46 L 127 47 L 129 47 L 127 46 Z M 131 46 L 131 47 L 133 47 L 131 46 Z M 135 46 L 135 47 L 137 47 L 135 46 Z M 135 48 Q 132 50 135 51 L 135 49 L 137 49 L 135 48 Z M 130 50 L 130 52 L 133 51 L 130 50 Z M 125 54 L 123 56 L 126 56 Q 127 53 125 54 Z " /><path fill="rgb(5,23,18)" stroke="rgb(5,23,18)" stroke-width="1" opacity="1" d="M 73.5 49 L 74.5 51 L 80 50.5 Q 79.3 52.8 81.5 52 L 84.5 51 L 91 54 Q 89.8 57 93.5 56 L 95.5 59 L 70 58.5 L 73 56.5 L 71 55.5 Q 71.8 57.8 69.5 57 L 67.5 59 L 51.5 59 L 52.5 57 L 54 57.5 L 54 56 L 56 56 Q 54.9 53.3 57.5 54 L 62.5 51 L 67.5 50 L 73 50.5 L 73.5 49 Z M 75 54 L 73 56 L 76 56 Q 77 53 75 54 Z " /><path fill="rgb(5,23,18)" stroke="rgb(5,23,18)" stroke-width="1" opacity="1" d="M 22.5 57 L 21.5 59 L 20 58.5 L 22.5 57 Z " /><path fill="rgb(5,23,18)" stroke="rgb(5,23,18)" stroke-width="1" opacity="1" d="M 6.5 60 L 9 60.5 L 6.5 61 L 6.5 60 Z " /><path fill="rgb(5,23,18)" stroke="rgb(5,23,18)" stroke-width="1" opacity="1" d="M 54.5 60 L 57 60.5 L 54.5 61 L 54.5 60 Z " /><path fill="rgb(5,23,18)" stroke="rgb(5,23,18)" stroke-width="1" opacity="1" d="M 70.5 60 L 73 60.5 L 70.5 61 L 70.5 60 Z " /><path fill="rgb(5,23,18)" stroke="rgb(5,23,18)" stroke-width="1" opacity="1" d="M 78.5 60 L 81 60.5 L 78.5 61 L 78.5 60 Z " /><path fill="rgb(5,23,18)" stroke="rgb(5,23,18)" stroke-width="1" opacity="1" d="M 86.5 60 L 89 60.5 L 86.5 61 L 86.5 60 Z " /><path fill="rgb(5,23,18)" stroke="rgb(5,23,18)" stroke-width="1" opacity="1" d="M 94.5 60 L 97 60.5 L 94.5 61 L 94.5 60 Z " /><path fill="rgb(5,23,18)" stroke="rgb(5,23,18)" stroke-width="1" opacity="1" d="M 102.5 60 L 105 60.5 L 102.5 61 L 102.5 60 Z " /><path fill="rgb(5,23,18)" stroke="rgb(5,23,18)" stroke-width="1" opacity="1" d="M 110.5 60 L 113 60.5 L 110.5 61 L 110.5 60 Z " /><path fill="rgb(5,23,18)" stroke="rgb(5,23,18)" stroke-width="1" opacity="1" d="M 118.5 60 L 121 60.5 L 118.5 61 L 118.5 60 Z " /><path fill="rgb(5,23,18)" stroke="rgb(5,23,18)" stroke-width="1" opacity="1" d="M 126.5 60 L 129 60.5 L 126.5 61 L 126.5 60 Z " /><path fill="rgb(5,23,18)" stroke="rgb(5,23,18)" stroke-width="1" opacity="1" d="M 134.5 60 L 137 60.5 L 134.5 61 L 134.5 60 Z " /><path fill="rgb(5,23,18)" stroke="rgb(5,23,18)" stroke-width="1" opacity="1" d="M 8.5 121 L 10 121.5 L 0.5 127 L 1.5 125 L 8.5 121 Z " /><path fill="rgb(5,23,18)" stroke="rgb(5,23,18)" stroke-width="1" opacity="1" d="M 43.5 130 L 45 130.5 L 42.5 132 L 43.5 130 Z " /><path fill="rgb(5,23,18)" stroke="rgb(5,23,18)" stroke-width="1" opacity="1" d="M 89.5 132 L 91 132.5 L 86.5 135 L 86.5 134 L 89.5 132 Z " /><path fill="rgb(5,23,18)" stroke="rgb(5,23,18)" stroke-width="1" opacity="1" d="M 84.5 135 L 83.5 137 L 82 136.5 L 84.5 135 Z " /><path fill="rgb(4,29,22)" stroke="rgb(4,29,22)" stroke-width="1" opacity="1" d="M 16.5 0 L 18.5 0 L 21 0.5 L 18 1.5 L 18.5 3 L 16.5 3 L 0.5 12 L 2.5 9 L 13 3.5 L 12.5 2 L 14.5 2 Q 17 2.7 16.5 0 Z " /><path fill="rgb(4,29,22)" stroke="rgb(4,29,22)" stroke-width="1" opacity="1" d="M 66.5 0 L 68.5 0 L 71 0.5 L 68 1.5 L 68.5 3 L 66.5 3 L 0.5 41 L 0 39 L 63 3.5 L 62.5 2 L 64.5 2 Q 67 2.7 66.5 0 Z " /><path fill="rgb(4,29,22)" stroke="rgb(4,29,22)" stroke-width="1" opacity="1" d="M 116.5 0 L 118.5 0 L 121 0.5 L 118 1.5 L 118.5 3 L 116.5 3 L 69.5 29 L 69.5 28 L 113 3.5 L 112.5 2 L 114.5 2 Q 117 2.7 116.5 0 Z " /><path fill="rgb(4,29,22)" stroke="rgb(4,29,22)" stroke-width="1" opacity="1" d="M 140.5 16 L 141 18 L 105.5 38 L 107.5 35 L 140.5 16 Z " /><path fill="rgb(4,29,22)" stroke="rgb(4,29,22)" stroke-width="1" opacity="1" d="M 107.5 39 L 108.5 41 L 107.5 39 Z " /><path fill="rgb(4,29,22)" stroke="rgb(4,29,22)" stroke-width="1" opacity="1" d="M 35.5 41 L 34.5 43 L 35.5 41 Z " /><path fill="rgb(4,29,22)" stroke="rgb(4,29,22)" stroke-width="1" opacity="1" d="M 31.5 45 L 29.5 48 L 31.5 45 Z " /><path fill="rgb(4,29,22)" stroke="rgb(4,29,22)" stroke-width="1" opacity="1" d="M 140.5 45 L 138.5 48 L 66.5 89 L 66.5 88 L 140.5 45 Z " /><path fill="rgb(4,29,22)" stroke="rgb(4,29,22)" stroke-width="1" opacity="1" d="M 114.5 46 L 115 47.5 L 113 48.5 L 114.5 46 Z " /><path fill="rgb(4,29,22)" stroke="rgb(4,29,22)" stroke-width="1" opacity="1" d="M 81.5 50 L 82 52 L 43.5 74 L 43 72 L 81.5 50 Z " /><path fill="rgb(4,29,22)" stroke="rgb(4,29,22)" stroke-width="1" opacity="1" d="M 24.5 54 L 24 55.5 Q 24.8 58.1 21.5 57 L 0.5 69 L 0.5 68 L 24.5 54 Z " /><path fill="rgb(4,29,22)" stroke="rgb(4,29,22)" stroke-width="1" opacity="1" d="M 54.5 55 L 53.5 57 L 54.5 55 Z " /><path fill="rgb(4,29,22)" stroke="rgb(4,29,22)" stroke-width="1" opacity="1" d="M 140.5 74 L 139.5 76 L 116.5 89 L 116.5 88 L 140.5 74 Z " /><path fill="rgb(4,29,22)" stroke="rgb(4,29,22)" stroke-width="1" opacity="1" d="M 14.5 89 L 13.5 91 L 12 90.5 L 14.5 89 Z " /><path fill="rgb(4,29,22)" stroke="rgb(4,29,22)" stroke-width="1" opacity="1" d="M 64.5 89 L 63.5 91 L 62 90.5 L 64.5 89 Z " /><path fill="rgb(4,29,22)" stroke="rgb(4,29,22)" stroke-width="1" opacity="1" d="M 114.5 89 L 113.5 91 L 112 90.5 L 114.5 89 Z " /><path fill="rgb(4,29,22)" stroke="rgb(4,29,22)" stroke-width="1" opacity="1" d="M 9.5 92 L 11 92.5 L 8.5 94 L 9.5 92 Z " /><path fill="rgb(4,29,22)" stroke="rgb(4,29,22)" stroke-width="1" opacity="1" d="M 59.5 92 L 61 92.5 L 58.5 94 L 59.5 92 Z " /><path fill="rgb(4,29,22)" stroke="rgb(4,29,22)" stroke-width="1" opacity="1" d="M 109.5 92 L 111 92.5 L 108.5 94 L 109.5 92 Z " /><path fill="rgb(4,29,22)" stroke="rgb(4,29,22)" stroke-width="1" opacity="1" d="M 100.5 102 L 101.5 104 L 100.5 102 Z " /><path fill="rgb(4,29,22)" stroke="rgb(4,29,22)" stroke-width="1" opacity="1" d="M 53.5 106 L 54.5 108 L 53.5 106 Z " /><path fill="rgb(4,29,22)" stroke="rgb(4,29,22)" stroke-width="1" opacity="1" d="M 114.5 115 L 115 116.5 L 113 117.5 L 114.5 115 Z " /><path fill="rgb(4,29,22)" stroke="rgb(4,29,22)" stroke-width="1" opacity="1" d="M 30.5 116 L 31.5 118 L 30.5 116 Z " /><path fill="rgb(4,29,22)" stroke="rgb(4,29,22)" stroke-width="1" opacity="1" d="M 34.5 120 L 35.5 122 L 34.5 120 Z " /><path fill="rgb(4,29,22)" stroke="rgb(4,29,22)" stroke-width="1" opacity="1" d="M 109.5 121 L 108.5 123 L 109.5 121 Z " /><path fill="rgb(6,25,20)" stroke="rgb(6,25,20)" stroke-width="1" opacity="1" d="M 1.5 0 L 16 0.5 Q 16.8 2.8 14.5 2 L 13.5 4 L 18 1.5 L 17.5 0 L 20.5 1 L 66 0.5 Q 66.8 2.8 64.5 2 L 63.5 4 L 68 1.5 L 67.5 0 L 70.5 1 L 116 0.5 Q 116.8 2.8 114.5 2 L 113.5 4 L 118 1.5 L 117.5 0 L 120.5 1 L 139.5 0 L 141 1.5 L 141 3.5 L 141 15.5 L 139 17.5 L 141 18 L 141 35 L 111.5 35 L 109.5 34 L 108.5 35 L 100.5 35 L 88.5 30 L 71.5 29 L 69.5 28 L 68.5 29 L 57.5 30 L 45.5 35 L 11.5 35 L 9.5 34 L 8.5 35 L 0 35 L 0 12.5 L 1 11.5 Q -1.8 9.8 0 3.5 L 1.5 0 Z M 10 5 L 9 7 L 11 6 L 10 5 Z M 60 5 L 59 7 L 61 6 L 60 5 Z M 110 5 L 109 7 L 111 6 L 110 5 Z M 3 9 L 2 11 L 4 10 L 3 9 Z M 53 9 L 52 11 L 54 10 L 53 9 Z M 103 9 L 102 11 L 104 10 L 103 9 Z M 46 13 L 45 15 L 47 14 L 46 13 Z M 96 13 L 95 15 L 97 14 L 96 13 Z M 41 16 L 40 18 L 42 17 L 41 16 Z M 91 16 L 90 18 L 92 17 L 91 16 Z M 34 20 L 33 22 L 35 21 L 34 20 Z M 84 20 L 83 22 L 85 21 L 84 20 Z M 134 20 L 133 22 L 135 21 L 134 20 Z M 27 24 L 26 26 L 28 25 L 27 24 Z M 77 24 L 76 26 L 78 25 L 77 24 Z M 127 24 L 126 26 L 128 25 L 127 24 Z M 20 28 L 19 30 L 21 29 L 20 28 Z M 120 28 L 119 30 L 121 29 L 120 28 Z M 15 31 L 14 33 L 16 32 L 15 31 Z M 115 31 L 114 33 L 116 32 L 115 31 Z " /><path fill="rgb(6,25,20)" stroke="rgb(6,25,20)" stroke-width="1" opacity="1" d="M 2.5 36 L 6 36.5 L 2.5 37 L 2.5 36 Z " /><path fill="rgb(6,25,20)" stroke="rgb(6,25,20)" stroke-width="1" opacity="1" d="M 10.5 36 L 17 36.5 L 10.5 37 L 10.5 36 Z " /><path fill="rgb(6,25,20)" stroke="rgb(6,25,20)" stroke-width="1" opacity="1" d="M 18.5 36 L 25 36.5 L 18.5 37 L 18.5 36 Z " /><path fill="rgb(6,25,20)" stroke="rgb(6,25,20)" stroke-width="1" opacity="1" d="M 26.5 36 L 33 36.5 L 26.5 37 L 26.5 36 Z " /><path fill="rgb(6,25,20)" stroke="rgb(6,25,20)" stroke-width="1" opacity="1" d="M 34.5 36 L 41 36.5 L 34.5 37 L 34.5 36 Z " /><path fill="rgb(6,25,20)" stroke="rgb(6,25,20)" stroke-width="1" opacity="1" d="M 108.5 36 L 113 36.5 L 108.5 37 L 108.5 36 Z " /><path fill="rgb(6,25,20)" stroke="rgb(6,25,20)" stroke-width="1" opacity="1" d="M 114.5 36 L 121 36.5 L 114.5 37 L 114.5 36 Z " /><path fill="rgb(6,25,20)" stroke="rgb(6,25,20)" stroke-width="1" opacity="1" d="M 122.5 36 L 129 36.5 L 122.5 37 L 122.5 36 Z " /><path fill="rgb(6,25,20)" stroke="rgb(6,25,20)" stroke-width="1" opacity="1" d="M 130.5 36 L 137 36.5 L 130.5 37 L 130.5 36 Z " /><path fill="rgb(6,25,20)" stroke="rgb(6,25,20)" stroke-width="1" opacity="1" d="M 138.5 36 L 141 36.5 L 138.5 37 L 138.5 36 Z " /><path fill="rgb(6,25,20)" stroke="rgb(6,25,20)" stroke-width="1" opacity="1" d="M 4.5 38 L 39 38.5 L 4.5 39 L 4.5 38 Z " /><path fill="rgb(6,25,20)" stroke="rgb(6,25,20)" stroke-width="1" opacity="1" d="M 106.5 38 L 141 38.5 L 106.5 39 L 106.5 38 Z " /><path fill="rgb(6,25,20)" stroke="rgb(6,25,20)" stroke-width="1" opacity="1" d="M 2.5 40 L 5 40.5 L 2.5 41 L 2.5 40 Z " /><path fill="rgb(6,25,20)" stroke="rgb(6,25,20)" stroke-width="1" opacity="1" d="M 6.5 40 L 9 40.5 L 6.5 41 L 6.5 40 Z " /><path fill="rgb(6,25,20)" stroke="rgb(6,25,20)" stroke-width="1" opacity="1" d="M 10.5 40 L 13 40.5 L 10.5 41 L 10.5 40 Z " /><path fill="rgb(6,25,20)" stroke="rgb(6,25,20)" stroke-width="1" opacity="1" d="M 14.5 40 L 17 40.5 L 14.5 41 L 14.5 40 Z " /><path fill="rgb(6,25,20)" stroke="rgb(6,25,20)" stroke-width="1" opacity="1" d="M 18.5 40 L 21 40.5 L 18.5 41 L 18.5 40 Z " /><path fill="rgb(6,25,20)" stroke="rgb(6,25,20)" stroke-width="1" opacity="1" d="M 22.5 40 L 25 40.5 L 22.5 41 L 22.5 40 Z " /><path fill="rgb(6,25,20)" stroke="rgb(6,25,20)" stroke-width="1" opacity="1" d="M 26.5 40 L 29 40.5 L 26.5 41 L 26.5 40 Z " /><path fill="rgb(6,25,20)" stroke="rgb(6,25,20)" stroke-width="1" opacity="1" d="M 30.5 40 L 33 40.5 L 30.5 41 L 30.5 40 Z " /><path fill="rgb(6,25,20)" stroke="rgb(6,25,20)" stroke-width="1" opacity="1" d="M 34.5 40 L 37 40.5 L 34.5 41 L 34.5 40 Z " /><path fill="rgb(6,25,20)" stroke="rgb(6,25,20)" stroke-width="1" opacity="1" d="M 110.5 40 L 113 40.5 L 110.5 41 L 110.5 40 Z " /><path fill="rgb(6,25,20)" stroke="rgb(6,25,20)" stroke-width="1" opacity="1" d="M 114.5 40 L 117 40.5 L 114.5 41 L 114.5 40 Z " /><path fill="rgb(6,25,20)" stroke="rgb(6,25,20)" stroke-width="1" opacity="1" d="M 118.5 40 L 121 40.5 L 118.5 41 L 118.5 40 Z " /><path fill="rgb(6,25,20)" stroke="rgb(6,25,20)" stroke-width="1" opacity="1" d="M 122.5 40 L 125 40.5 L 122.5 41 L 122.5 40 Z " /><path fill="rgb(6,25,20)" stroke="rgb(6,25,20)" stroke-width="1" opacity="1" d="M 126.5 40 L 129 40.5 L 126.5 41 L 126.5 40 Z " /><path fill="rgb(6,25,20)" stroke="rgb(6,25,20)" stroke-width="1" opacity="1" d="M 130.5 40 L 133 40.5 L 130.5 41 L 130.5 40 Z " /><path fill="rgb(6,25,20)" stroke="rgb(6,25,20)" stroke-width="1" opacity="1" d="M 134.5 40 L 137 40.5 L 134.5 41 L 134.5 40 Z " /><path fill="rgb(6,25,20)" stroke="rgb(6,25,20)" stroke-width="1" opacity="1" d="M 138.5 40 L 141 40.5 L 138.5 41 L 138.5 40 Z " /><path fill="rgb(6,25,20)" stroke="rgb(6,25,20)" stroke-width="1" opacity="1" d="M 0.5 42 L 34 42.5 L 0.5 43 L 0.5 42 Z " /><path fill="rgb(6,25,20)" stroke="rgb(6,25,20)" stroke-width="1" opacity="1" d="M 111.5 42 L 141 42.5 L 111.5 43 L 111.5 42 Z " /><path fill="rgb(6,25,20)" stroke="rgb(6,25,20)" stroke-width="1" opacity="1" d="M 2.5 46 L 5 46.5 L 2.5 47 L 2.5 46 Z " /><path fill="rgb(6,25,20)" stroke="rgb(6,25,20)" stroke-width="1" opacity="1" d="M 6.5 46 L 9 46.5 L 6.5 47 L 6.5 46 Z " /><path fill="rgb(6,25,20)" stroke="rgb(6,25,20)" stroke-width="1" opacity="1" d="M 10.5 46 L 13 46.5 L 10.5 47 L 10.5 46 Z " /><path fill="rgb(6,25,20)" stroke="rgb(6,25,20)" stroke-width="1" opacity="1" d="M 14.5 46 L 17 46.5 L 14.5 47 L 14.5 46 Z " /><path fill="rgb(6,25,20)" stroke="rgb(6,25,20)" stroke-width="1" opacity="1" d="M 18.5 46 L 21 46.5 L 18.5 47 L 18.5 46 Z " /><path fill="rgb(6,25,20)" stroke="rgb(6,25,20)" stroke-width="1" opacity="1" d="M 22.5 46 L 25 46.5 L 22.5 47 L 22.5 46 Z " /><path fill="rgb(6,25,20)" stroke="rgb(6,25,20)" stroke-width="1" opacity="1" d="M 26.5 46 L 29 46.5 L 26.5 47 L 26.5 46 Z " /><path fill="rgb(6,25,20)" stroke="rgb(6,25,20)" stroke-width="1" opacity="1" d="M 118.5 46 L 121 46.5 L 118.5 47 L 118.5 46 Z " /><path fill="rgb(6,25,20)" stroke="rgb(6,25,20)" stroke-width="1" opacity="1" d="M 122.5 46 L 125 46.5 L 122.5 47 L 122.5 46 Z " /><path fill="rgb(6,25,20)" stroke="rgb(6,25,20)" stroke-width="1" opacity="1" d="M 126.5 46 L 129 46.5 L 126.5 47 L 126.5 46 Z " /><path fill="rgb(6,25,20)" stroke="rgb(6,25,20)" stroke-width="1" opacity="1" d="M 130.5 46 L 133 46.5 L 130.5 47 L 130.5 46 Z " /><path fill="rgb(6,25,20)" stroke="rgb(6,25,20)" stroke-width="1" opacity="1" d="M 134.5 46 L 137 46.5 L 134.5 47 L 134.5 46 Z " /><path fill="rgb(6,25,20)" stroke="rgb(6,25,20)" stroke-width="1" opacity="1" d="M 55.5 94 L 53.5 97 L 47.5 100 L 47.5 99 L 55.5 94 Z " /><path fill="rgb(6,25,20)" stroke="rgb(6,25,20)" stroke-width="1" opacity="1" d="M 3.5 95 L 5 95.5 L 0.5 98 L 0.5 97 L 3.5 95 Z " /><path fill="rgb(6,25,20)" stroke="rgb(6,25,20)" stroke-width="1" opacity="1" d="M 103.5 95 L 105 95.5 L 74.5 113 L 74.5 112 L 103.5 95 Z " /><path fill="rgb(6,25,20)" stroke="rgb(6,25,20)" stroke-width="1" opacity="1" d="M 140.5 103 L 139.5 105 L 124.5 113 L 124.5 112 L 140.5 103 Z " /><path fill="rgb(6,25,20)" stroke="rgb(6,25,20)" stroke-width="1" opacity="1" d="M 26.5 111 L 25.5 113 L 24 112.5 L 26.5 111 Z " /><path fill="rgb(6,25,20)" stroke="rgb(6,25,20)" stroke-width="1" opacity="1" d="M 22.5 113 L 23 115 L 20.5 116 L 22.5 113 Z " /><path fill="rgb(6,25,20)" stroke="rgb(6,25,20)" stroke-width="1" opacity="1" d="M 122.5 113 L 123 115 L 120.5 116 L 122.5 113 Z " /><path fill="rgb(4,22,17)" stroke="rgb(4,22,17)" stroke-width="1" opacity="1" d="M 74.5 141 L 76 141.5 L 73.5 143 L 74.5 141 Z " /><path fill="rgb(4,22,17)" stroke="rgb(4,22,17)" stroke-width="1" opacity="1" d="M 20.5 143 L 22 143.5 L 0.5 156 L 1.5 154 L 20.5 143 Z " /><path fill="rgb(4,22,17)" stroke="rgb(4,22,17)" stroke-width="1" opacity="1" d="M 70.5 143 L 72 143.5 L 48.5 157 L 48.5 156 L 70.5 143 Z " /><path fill="rgb(4,22,17)" stroke="rgb(4,22,17)" stroke-width="1" opacity="1" d="M 120.5 143 L 122 143.5 L 98.5 157 L 98.5 156 L 120.5 143 Z " /><path fill="rgb(239,239,239)" stroke="rgb(239,239,239)" stroke-width="1" opacity="1" d="M 111.5 44 L 112.5 46 L 111.5 44 Z " /><path fill="rgb(239,239,239)" stroke="rgb(239,239,239)" stroke-width="1" opacity="1" d="M 107.5 52 L 102.5 58 L 107.5 52 Z " /><path fill="rgb(239,239,239)" stroke="rgb(239,239,239)" stroke-width="1" opacity="1" d="M 94.5 55 L 98.5 60 L 94.5 55 Z " /><path fill="rgb(239,239,239)" stroke="rgb(239,239,239)" stroke-width="1" opacity="1" d="M 47.5 61 L 46.5 63 L 47.5 61 Z " /><path fill="rgb(239,239,239)" stroke="rgb(239,239,239)" stroke-width="1" opacity="1" d="M 46.5 100 L 47.5 102 L 46.5 100 Z " /><path fill="rgb(239,239,239)" stroke="rgb(239,239,239)" stroke-width="1" opacity="1" d="M 98.5 103 L 94.5 108 L 98.5 103 Z " /><path fill="rgb(239,239,239)" stroke="rgb(239,239,239)" stroke-width="1" opacity="1" d="M 102.5 105 L 107.5 111 L 102.5 105 Z " /><path fill="rgb(239,239,239)" stroke="rgb(239,239,239)" stroke-width="1" opacity="1" d="M 54.5 108 L 55.5 110 L 54.5 108 Z " /><path fill="rgb(239,239,239)" stroke="rgb(239,239,239)" stroke-width="1" opacity="1" d="M 33.5 118 L 34.5 120 L 33.5 118 Z " /><path fill="rgb(239,239,239)" stroke="rgb(239,239,239)" stroke-width="1" opacity="1" d="M 111.5 118 L 110.5 120 L 111.5 118 Z " /><path fill="rgb(5,22,18)" stroke="rgb(5,22,18)" stroke-width="1" opacity="1" d="M 0.5 59 L 16 59.5 L 14 60.5 L 16.5 61 Q 17.8 58 22 59 L 20 62.5 L 20 67 L 17 67.5 L 19 68 L 18.5 71 L 0 71 L 0.5 69 L 2 69.5 Q 1.3 67.3 3.5 68 L 3.5 67 L 0.5 68 L 0.5 59 Z M 7 60 L 7 61 L 9 61 L 7 60 Z M 13 60 Q 13 63 11 62 L 10 64 L 13 63 Q 16 62 13 60 Z M 6 65 Q 3 67 6 68 L 7 66 L 6 65 Z M 10 67 L 10 68 L 12 68 L 10 67 Z " /><path fill="rgb(5,22,18)" stroke="rgb(5,22,18)" stroke-width="1" opacity="1" d="M 50.5 59 L 66 59.5 L 62 60 Q 63.1 62.7 60.5 62 Q 57.5 63.5 60.5 65 L 61 63 L 68.5 59 L 96.5 59 L 100.5 61 L 102.5 59 L 115.5 59 L 115.5 60 L 114 60.5 L 116.5 61 L 118.5 59 L 140.5 59 L 141 65.5 Q 141.6 70.9 140.5 71 L 99.5 71 L 99.5 69 L 97 69 L 96.5 71 L 49.5 71 L 49.5 69 Q 45.8 68 47 71 L 44 71 L 47 63 Q 50 64.3 49 60.5 L 50.5 59 Z M 55 60 L 55 61 L 57 61 L 55 60 Z M 71 60 L 71 61 L 73 61 L 71 60 Z M 79 60 L 79 61 L 81 61 L 79 60 Z M 87 60 L 87 61 L 89 61 L 87 60 Z M 95 60 L 95 61 L 97 61 L 95 60 Z M 103 60 L 103 61 L 105 61 L 103 60 Z M 111 60 L 112 62 L 111 62 L 110 64 L 114 62 L 111 60 Z M 119 60 L 119 61 L 121 61 L 119 60 Z M 127 60 L 127 61 L 129 61 L 127 60 Z M 135 60 L 135 61 L 137 61 L 135 60 Z M 58 63 L 54 67 Q 56 70 57 67 Q 56 64 59 65 L 58 63 Z M 106 65 Q 103 67 106 68 L 108 68 L 107 67 L 107 66 L 106 65 Z M 50 67 L 52 70 L 52 68 L 54 68 L 50 67 Z M 58 67 L 58 68 L 60 68 L 58 67 Z M 66 67 L 66 68 L 68 68 L 66 67 Z M 74 67 L 74 68 L 76 68 L 74 67 Z M 82 67 L 82 68 L 84 68 L 82 67 Z M 90 67 L 90 68 L 92 68 L 90 67 Z M 98 67 L 98 68 L 100 68 L 98 67 Z M 102 67 Q 99 69 102 70 L 102 68 L 104 68 L 102 67 Z M 114 67 L 114 68 L 116 68 L 114 67 Z M 122 67 L 122 68 L 124 68 L 122 67 Z M 130 67 L 130 68 L 132 68 L 130 67 Z M 138 67 L 138 68 L 140 68 L 138 67 Z " /><path fill="rgb(5,22,18)" stroke="rgb(5,22,18)" stroke-width="1" opacity="1" d="M 0.5 72 L 18 72.5 L 0.5 73 L 0.5 72 Z " /><path fill="rgb(5,22,18)" stroke="rgb(5,22,18)" stroke-width="1" opacity="1" d="M 45.5 72 L 93 72.5 L 45.5 73 L 45.5 72 Z " /><path fill="rgb(5,22,18)" stroke="rgb(5,22,18)" stroke-width="1" opacity="1" d="M 95.5 72 L 141 72.5 L 95.5 73 L 95.5 72 Z " /><path fill="rgb(5,22,18)" stroke="rgb(5,22,18)" stroke-width="1" opacity="1" d="M 0.5 74 L 18 74.5 L 0.5 75 L 0.5 74 Z " /><path fill="rgb(5,22,18)" stroke="rgb(5,22,18)" stroke-width="1" opacity="1" d="M 43.5 74 L 90 74.5 L 43.5 75 L 43.5 74 Z " /><path fill="rgb(5,22,18)" stroke="rgb(5,22,18)" stroke-width="1" opacity="1" d="M 92.5 74 L 140 74.5 L 92.5 75 L 92.5 74 Z " /><path fill="rgb(66,78,75)" stroke="rgb(66,78,75)" stroke-width="1" opacity="1" d="M 62.5 29 L 65 29.5 L 62.5 30 L 62.5 29 Z " /><path fill="rgb(66,78,75)" stroke="rgb(66,78,75)" stroke-width="1" opacity="1" d="M 104.5 37 L 105.5 39 L 104.5 37 Z " /><path fill="rgb(66,78,75)" stroke="rgb(66,78,75)" stroke-width="1" opacity="1" d="M 38.5 39 L 37.5 41 L 38.5 39 Z " /><path fill="rgb(66,78,75)" stroke="rgb(66,78,75)" stroke-width="1" opacity="1" d="M 109.5 41 L 113.5 46 L 109.5 41 Z " /><path fill="rgb(66,78,75)" stroke="rgb(66,78,75)" stroke-width="1" opacity="1" d="M 33.5 43 L 32.5 45 L 33.5 43 Z " /><path fill="rgb(66,78,75)" stroke="rgb(66,78,75)" stroke-width="1" opacity="1" d="M 28.5 49 L 27.5 51 L 28.5 49 Z " /><path fill="rgb(66,78,75)" stroke="rgb(66,78,75)" stroke-width="1" opacity="1" d="M 68.5 49 L 73 49.5 L 68.5 50 L 68.5 49 Z " /><path fill="rgb(66,78,75)" stroke="rgb(66,78,75)" stroke-width="1" opacity="1" d="M 75.5 49 L 78 49.5 L 75.5 50 L 75.5 49 Z " /><path fill="rgb(66,78,75)" stroke="rgb(66,78,75)" stroke-width="1" opacity="1" d="M 26.5 52 L 25.5 54 L 26.5 52 Z " /><path fill="rgb(66,78,75)" stroke="rgb(66,78,75)" stroke-width="1" opacity="1" d="M 88.5 52 L 89.5 54 L 88.5 52 Z " /><path fill="rgb(66,78,75)" stroke="rgb(66,78,75)" stroke-width="1" opacity="1" d="M 108.5 52 L 101.5 60 L 108.5 52 Z " /><path fill="rgb(66,78,75)" stroke="rgb(66,78,75)" stroke-width="1" opacity="1" d="M 94.5 56 L 98.5 61 L 94.5 56 Z " /><path fill="rgb(66,78,75)" stroke="rgb(66,78,75)" stroke-width="1" opacity="1" d="M 51.5 57 L 50.5 59 L 51.5 57 Z " /><path fill="rgb(66,78,75)" stroke="rgb(66,78,75)" stroke-width="1" opacity="1" d="M 18.5 72 L 19 74.5 L 18 74.5 L 18.5 72 Z " /><path fill="rgb(66,78,75)" stroke="rgb(66,78,75)" stroke-width="1" opacity="1" d="M 42.5 86 L 43 88.5 L 42 88.5 L 42.5 86 Z " /><path fill="rgb(66,78,75)" stroke="rgb(66,78,75)" stroke-width="1" opacity="1" d="M 18.5 88 L 19 90.5 L 18 90.5 L 18.5 88 Z " /><path fill="rgb(66,78,75)" stroke="rgb(66,78,75)" stroke-width="1" opacity="1" d="M 47.5 100 L 48.5 102 L 47.5 100 Z " /><path fill="rgb(66,78,75)" stroke="rgb(66,78,75)" stroke-width="1" opacity="1" d="M 98.5 102 L 94.5 107 L 98.5 102 Z " /><path fill="rgb(66,78,75)" stroke="rgb(66,78,75)" stroke-width="1" opacity="1" d="M 50.5 104 L 51.5 106 L 50.5 104 Z " /><path fill="rgb(66,78,75)" stroke="rgb(66,78,75)" stroke-width="1" opacity="1" d="M 102.5 104 L 108.5 111 L 102.5 104 Z " /><path fill="rgb(66,78,75)" stroke="rgb(66,78,75)" stroke-width="1" opacity="1" d="M 89.5 109 L 88.5 111 L 89.5 109 Z " /><path fill="rgb(66,78,75)" stroke="rgb(66,78,75)" stroke-width="1" opacity="1" d="M 68.5 113 L 73 113.5 L 68.5 114 L 68.5 113 Z " /><path fill="rgb(66,78,75)" stroke="rgb(66,78,75)" stroke-width="1" opacity="1" d="M 75.5 113 L 78 113.5 L 75.5 114 L 75.5 113 Z " /><path fill="rgb(66,78,75)" stroke="rgb(66,78,75)" stroke-width="1" opacity="1" d="M 32.5 118 L 33.5 120 L 32.5 118 Z " /><path fill="rgb(66,78,75)" stroke="rgb(66,78,75)" stroke-width="1" opacity="1" d="M 112.5 118 L 110.5 121 L 112.5 118 Z " /><path fill="rgb(66,78,75)" stroke="rgb(66,78,75)" stroke-width="1" opacity="1" d="M 38.5 123 L 39.5 125 L 38.5 123 Z " /><path fill="rgb(66,78,75)" stroke="rgb(66,78,75)" stroke-width="1" opacity="1" d="M 61.5 133 L 64 133.5 L 61.5 134 L 61.5 133 Z " /><path fill="rgb(66,78,75)" stroke="rgb(66,78,75)" stroke-width="1" opacity="1" d="M 79.5 133 L 82 133.5 L 79.5 134 L 79.5 133 Z " /><path fill="rgb(4,19,15)" stroke="rgb(4,19,15)" stroke-width="1" opacity="1" d="M 0.5 103 L 22 103.5 L 0.5 104 L 0.5 103 Z " /><path fill="rgb(4,19,15)" stroke="rgb(4,19,15)" stroke-width="1" opacity="1" d="M 50.5 103 L 90 103.5 L 50.5 104 L 50.5 103 Z " /><path fill="rgb(4,19,15)" stroke="rgb(4,19,15)" stroke-width="1" opacity="1" d="M 92.5 103 L 97 103.5 L 92.5 104 L 92.5 103 Z " /><path fill="rgb(4,19,15)" stroke="rgb(4,19,15)" stroke-width="1" opacity="1" d="M 102.5 103 L 140 103.5 L 102.5 104 L 102.5 103 Z " /><path fill="rgb(4,19,15)" stroke="rgb(4,19,15)" stroke-width="1" opacity="1" d="M 0.5 105 L 23 105.5 L 0.5 106 L 0.5 105 Z " /><path fill="rgb(4,19,15)" stroke="rgb(4,19,15)" stroke-width="1" opacity="1" d="M 52.5 105 L 86 105.5 L 52.5 106 L 52.5 105 Z " /><path fill="rgb(4,19,15)" stroke="rgb(4,19,15)" stroke-width="1" opacity="1" d="M 88.5 105 L 95 105.5 L 88.5 106 L 88.5 105 Z " /><path fill="rgb(4,19,15)" stroke="rgb(4,19,15)" stroke-width="1" opacity="1" d="M 104.5 105 L 136 105.5 L 104.5 106 L 104.5 105 Z " /><path fill="rgb(4,19,15)" stroke="rgb(4,19,15)" stroke-width="1" opacity="1" d="M 138.5 105 L 141 105.5 L 138.5 106 L 138.5 105 Z " /><path fill="rgb(4,19,15)" stroke="rgb(4,19,15)" stroke-width="1" opacity="1" d="M 0.5 107 L 23.5 107 L 24 108.5 L 30 116.5 L 19.5 117 L 17 115.5 L 16.5 117 L 0 117 L 1 110.5 L 0.5 107 Z M 23 113 L 20 115 L 20 116 Q 23 117 24 114 L 23 113 Z " /><path fill="rgb(4,19,15)" stroke="rgb(4,19,15)" stroke-width="1" opacity="1" d="M 55.5 107 L 82.5 107 L 84.5 109 L 85 107 L 92 107.5 Q 87 113 76.5 113 L 74.5 112 Q 72.8 114.7 66.5 113 L 58.5 110 L 55.5 107 Z M 81 108 Q 78 110 81 111 L 81 109 L 83 109 L 81 108 Z M 76 110 L 76 112 L 79 111 L 76 110 Z " /><path fill="rgb(4,19,15)" stroke="rgb(4,19,15)" stroke-width="1" opacity="1" d="M 106.5 107 L 132.5 107 L 134.5 108 Q 135.7 105.8 140.5 107 L 141 111.5 Q 141.6 116.9 140.5 117 L 119.5 117 L 117 115.5 Q 117.8 117.8 115.5 117 L 115.5 115 L 112 114 Q 113.1 111.3 110.5 112 L 106.5 107 Z M 128 110 L 127 112 L 129 111 L 128 110 Z M 123 113 L 120 115 L 120 116 Q 124 117 124 114 L 123 113 Z " /><path fill="rgb(4,19,15)" stroke="rgb(4,19,15)" stroke-width="1" opacity="1" d="M 0.5 118 L 14 118.5 L 0.5 119 L 0.5 118 Z " /><path fill="rgb(4,19,15)" stroke="rgb(4,19,15)" stroke-width="1" opacity="1" d="M 16.5 118 L 32 118.5 L 16.5 119 L 16.5 118 Z " /><path fill="rgb(4,19,15)" stroke="rgb(4,19,15)" stroke-width="1" opacity="1" d="M 116.5 118 L 141 118.5 L 116.5 119 L 116.5 118 Z " /><path fill="rgb(4,19,15)" stroke="rgb(4,19,15)" stroke-width="1" opacity="1" d="M 0.5 120 L 10 120.5 L 0.5 121 L 0.5 120 Z " /><path fill="rgb(4,19,15)" stroke="rgb(4,19,15)" stroke-width="1" opacity="1" d="M 12.5 120 L 34 120.5 L 12.5 121 L 12.5 120 Z " /><path fill="rgb(4,19,15)" stroke="rgb(4,19,15)" stroke-width="1" opacity="1" d="M 112.5 120 L 141 120.5 L 112.5 121 L 112.5 120 Z " /><path fill="rgb(5,20,17)" stroke="rgb(5,20,17)" stroke-width="1" opacity="1" d="M 0.5 87 L 17 87.5 L 0.5 88 L 0.5 87 Z " /><path fill="rgb(5,20,17)" stroke="rgb(5,20,17)" stroke-width="1" opacity="1" d="M 43.5 87 L 67 87.5 L 43.5 88 L 43.5 87 Z " /><path fill="rgb(5,20,17)" stroke="rgb(5,20,17)" stroke-width="1" opacity="1" d="M 69.5 87 L 117 87.5 L 69.5 88 L 69.5 87 Z " /><path fill="rgb(5,20,17)" stroke="rgb(5,20,17)" stroke-width="1" opacity="1" d="M 119.5 87 L 141 87.5 L 119.5 88 L 119.5 87 Z " /><path fill="rgb(5,20,17)" stroke="rgb(5,20,17)" stroke-width="1" opacity="1" d="M 0.5 89 L 14 89.5 L 0.5 90 L 0.5 89 Z " /><path fill="rgb(5,20,17)" stroke="rgb(5,20,17)" stroke-width="1" opacity="1" d="M 43.5 89 L 64 89.5 L 43.5 90 L 43.5 89 Z " /><path fill="rgb(5,20,17)" stroke="rgb(5,20,17)" stroke-width="1" opacity="1" d="M 66.5 89 L 114 89.5 L 66.5 90 L 66.5 89 Z " /><path fill="rgb(5,20,17)" stroke="rgb(5,20,17)" stroke-width="1" opacity="1" d="M 116.5 89 L 141 89.5 L 116.5 90 L 116.5 89 Z " /><path fill="rgb(5,20,17)" stroke="rgb(5,20,17)" stroke-width="1" opacity="1" d="M 0.5 91 L 10 91.5 L 7 93.5 L 9 94.5 Q 8.3 92.3 10.5 93 Q 12.2 89.5 18 91 L 19 93.5 Q 16.5 95 20 96.5 L 19 99.5 L 21 100 L 22 102.5 L 0 103 L 0 98 L 1.5 98 L 1.5 97 Q -0.8 97.8 0 95.5 L 0.5 91 Z M 5 94 L 3 97 L 7 95 L 5 94 Z " /><path fill="rgb(5,20,17)" stroke="rgb(5,20,17)" stroke-width="1" opacity="1" d="M 44.5 91 L 60 91.5 L 57 93.5 L 59 94.5 Q 58.3 92.3 60.5 93 L 62.5 91 L 109.5 91 L 109.5 92 L 107 93.5 L 109 94.5 Q 108.3 92.3 110.5 93 L 112.5 91 L 140.5 91 L 141 95.5 L 141 102.5 L 140.5 103 L 101.5 103 Q 99.5 99 97.5 103 Q 92.5 104 91.5 101 L 91 103 L 49 102.5 L 49.5 101 L 48 100.5 L 50 100 Q 51.1 97.3 48.5 98 Q 47.3 100.3 46 97.5 L 44 93.5 L 44.5 91 Z M 55 94 L 53 97 L 57 95 L 55 94 Z M 105 94 L 103 97 L 107 95 L 105 94 Z M 99 98 L 97 100 L 100 100 Q 101 97 99 98 Z M 96 99 L 95 101 L 93 102 L 96 102 Q 99 101 96 99 Z " /><path fill="rgb(5,20,17)" stroke="rgb(5,20,17)" stroke-width="1" opacity="1" d="M 0.5 104 L 23 104.5 L 0.5 105 L 0.5 104 Z " /><path fill="rgb(5,20,17)" stroke="rgb(5,20,17)" stroke-width="1" opacity="1" d="M 51.5 104 L 88 104.5 L 51.5 105 L 51.5 104 Z " /><path fill="rgb(5,20,17)" stroke="rgb(5,20,17)" stroke-width="1" opacity="1" d="M 90.5 104 L 96 104.5 L 90.5 105 L 90.5 104 Z " /><path fill="rgb(5,20,17)" stroke="rgb(5,20,17)" stroke-width="1" opacity="1" d="M 103.5 104 L 138 104.5 L 103.5 105 L 103.5 104 Z " /><path fill="rgb(5,20,17)" stroke="rgb(5,20,17)" stroke-width="1" opacity="1" d="M 0.5 106 L 23 106.5 L 0.5 107 L 0.5 106 Z " /><path fill="rgb(5,20,17)" stroke="rgb(5,20,17)" stroke-width="1" opacity="1" d="M 54.5 106 L 84 106.5 L 54.5 107 L 54.5 106 Z " /><path fill="rgb(5,20,17)" stroke="rgb(5,20,17)" stroke-width="1" opacity="1" d="M 86.5 106 L 94 106.5 L 86.5 107 L 86.5 106 Z " /><path fill="rgb(5,20,17)" stroke="rgb(5,20,17)" stroke-width="1" opacity="1" d="M 105.5 106 L 134 106.5 L 105.5 107 L 105.5 106 Z " /><path fill="rgb(5,20,17)" stroke="rgb(5,20,17)" stroke-width="1" opacity="1" d="M 136.5 106 L 141 106.5 L 136.5 107 L 136.5 106 Z " /><path fill="rgb(5,21,17)" stroke="rgb(5,21,17)" stroke-width="1" opacity="1" d="M 1.5 71 L 4 71.5 L 1.5 72 L 1.5 71 Z " /><path fill="rgb(5,21,17)" stroke="rgb(5,21,17)" stroke-width="1" opacity="1" d="M 5.5 71 L 8 71.5 L 5.5 72 L 5.5 71 Z " /><path fill="rgb(5,21,17)" stroke="rgb(5,21,17)" stroke-width="1" opacity="1" d="M 9.5 71 L 12 71.5 L 9.5 72 L 9.5 71 Z " /><path fill="rgb(5,21,17)" stroke="rgb(5,21,17)" stroke-width="1" opacity="1" d="M 13.5 71 L 16 71.5 L 13.5 72 L 13.5 71 Z " /><path fill="rgb(5,21,17)" stroke="rgb(5,21,17)" stroke-width="1" opacity="1" d="M 49.5 71 L 52 71.5 L 49.5 72 L 49.5 71 Z " /><path fill="rgb(5,21,17)" stroke="rgb(5,21,17)" stroke-width="1" opacity="1" d="M 53.5 71 L 56 71.5 L 53.5 72 L 53.5 71 Z " /><path fill="rgb(5,21,17)" stroke="rgb(5,21,17)" stroke-width="1" opacity="1" d="M 57.5 71 L 60 71.5 L 57.5 72 L 57.5 71 Z " /><path fill="rgb(5,21,17)" stroke="rgb(5,21,17)" stroke-width="1" opacity="1" d="M 61.5 71 L 64 71.5 L 61.5 72 L 61.5 71 Z " /><path fill="rgb(5,21,17)" stroke="rgb(5,21,17)" stroke-width="1" opacity="1" d="M 65.5 71 L 68 71.5 L 65.5 72 L 65.5 71 Z " /><path fill="rgb(5,21,17)" stroke="rgb(5,21,17)" stroke-width="1" opacity="1" d="M 69.5 71 L 72 71.5 L 69.5 72 L 69.5 71 Z " /><path fill="rgb(5,21,17)" stroke="rgb(5,21,17)" stroke-width="1" opacity="1" d="M 73.5 71 L 76 71.5 L 73.5 72 L 73.5 71 Z " /><path fill="rgb(5,21,17)" stroke="rgb(5,21,17)" stroke-width="1" opacity="1" d="M 77.5 71 L 80 71.5 L 77.5 72 L 77.5 71 Z " /><path fill="rgb(5,21,17)" stroke="rgb(5,21,17)" stroke-width="1" opacity="1" d="M 81.5 71 L 84 71.5 L 81.5 72 L 81.5 71 Z " /><path fill="rgb(5,21,17)" stroke="rgb(5,21,17)" stroke-width="1" opacity="1" d="M 85.5 71 L 88 71.5 L 85.5 72 L 85.5 71 Z " /><path fill="rgb(5,21,17)" stroke="rgb(5,21,17)" stroke-width="1" opacity="1" d="M 89.5 71 L 92 71.5 L 89.5 72 L 89.5 71 Z " /><path fill="rgb(5,21,17)" stroke="rgb(5,21,17)" stroke-width="1" opacity="1" d="M 97.5 71 L 100 71.5 L 97.5 72 L 97.5 71 Z " /><path fill="rgb(5,21,17)" stroke="rgb(5,21,17)" stroke-width="1" opacity="1" d="M 101.5 71 L 104 71.5 L 101.5 72 L 101.5 71 Z " /><path fill="rgb(5,21,17)" stroke="rgb(5,21,17)" stroke-width="1" opacity="1" d="M 105.5 71 L 108 71.5 L 105.5 72 L 105.5 71 Z " /><path fill="rgb(5,21,17)" stroke="rgb(5,21,17)" stroke-width="1" opacity="1" d="M 109.5 71 L 112 71.5 L 109.5 72 L 109.5 71 Z " /><path fill="rgb(5,21,17)" stroke="rgb(5,21,17)" stroke-width="1" opacity="1" d="M 113.5 71 L 116 71.5 L 113.5 72 L 113.5 71 Z " /><path fill="rgb(5,21,17)" stroke="rgb(5,21,17)" stroke-width="1" opacity="1" d="M 117.5 71 L 120 71.5 L 117.5 72 L 117.5 71 Z " /><path fill="rgb(5,21,17)" stroke="rgb(5,21,17)" stroke-width="1" opacity="1" d="M 121.5 71 L 124 71.5 L 121.5 72 L 121.5 71 Z " /><path fill="rgb(5,21,17)" stroke="rgb(5,21,17)" stroke-width="1" opacity="1" d="M 125.5 71 L 128 71.5 L 125.5 72 L 125.5 71 Z " /><path fill="rgb(5,21,17)" stroke="rgb(5,21,17)" stroke-width="1" opacity="1" d="M 129.5 71 L 132 71.5 L 129.5 72 L 129.5 71 Z " /><path fill="rgb(5,21,17)" stroke="rgb(5,21,17)" stroke-width="1" opacity="1" d="M 133.5 71 L 136 71.5 L 133.5 72 L 133.5 71 Z " /><path fill="rgb(5,21,17)" stroke="rgb(5,21,17)" stroke-width="1" opacity="1" d="M 137.5 71 L 140 71.5 L 137.5 72 L 137.5 71 Z " /><path fill="rgb(5,21,17)" stroke="rgb(5,21,17)" stroke-width="1" opacity="1" d="M 1.5 73 L 4 73.5 L 1.5 74 L 1.5 73 Z " /><path fill="rgb(5,21,17)" stroke="rgb(5,21,17)" stroke-width="1" opacity="1" d="M 5.5 73 L 8 73.5 L 5.5 74 L 5.5 73 Z " /><path fill="rgb(5,21,17)" stroke="rgb(5,21,17)" stroke-width="1" opacity="1" d="M 9.5 73 L 12 73.5 L 9.5 74 L 9.5 73 Z " /><path fill="rgb(5,21,17)" stroke="rgb(5,21,17)" stroke-width="1" opacity="1" d="M 13.5 73 L 16 73.5 L 13.5 74 L 13.5 73 Z " /><path fill="rgb(5,21,17)" stroke="rgb(5,21,17)" stroke-width="1" opacity="1" d="M 45.5 73 L 48 73.5 L 45.5 74 L 45.5 73 Z " /><path fill="rgb(5,21,17)" stroke="rgb(5,21,17)" stroke-width="1" opacity="1" d="M 49.5 73 L 52 73.5 L 49.5 74 L 49.5 73 Z " /><path fill="rgb(5,21,17)" stroke="rgb(5,21,17)" stroke-width="1" opacity="1" d="M 53.5 73 L 56 73.5 L 53.5 74 L 53.5 73 Z " /><path fill="rgb(5,21,17)" stroke="rgb(5,21,17)" stroke-width="1" opacity="1" d="M 57.5 73 L 60 73.5 L 57.5 74 L 57.5 73 Z " /><path fill="rgb(5,21,17)" stroke="rgb(5,21,17)" stroke-width="1" opacity="1" d="M 61.5 73 L 64 73.5 L 61.5 74 L 61.5 73 Z " /><path fill="rgb(5,21,17)" stroke="rgb(5,21,17)" stroke-width="1" opacity="1" d="M 65.5 73 L 68 73.5 L 65.5 74 L 65.5 73 Z " /><path fill="rgb(5,21,17)" stroke="rgb(5,21,17)" stroke-width="1" opacity="1" d="M 69.5 73 L 72 73.5 L 69.5 74 L 69.5 73 Z " /><path fill="rgb(5,21,17)" stroke="rgb(5,21,17)" stroke-width="1" opacity="1" d="M 73.5 73 L 76 73.5 L 73.5 74 L 73.5 73 Z " /><path fill="rgb(5,21,17)" stroke="rgb(5,21,17)" stroke-width="1" opacity="1" d="M 77.5 73 L 80 73.5 L 77.5 74 L 77.5 73 Z " /><path fill="rgb(5,21,17)" stroke="rgb(5,21,17)" stroke-width="1" opacity="1" d="M 81.5 73 L 84 73.5 L 81.5 74 L 81.5 73 Z " /><path fill="rgb(5,21,17)" stroke="rgb(5,21,17)" stroke-width="1" opacity="1" d="M 85.5 73 L 88 73.5 L 85.5 74 L 85.5 73 Z " /><path fill="rgb(5,21,17)" stroke="rgb(5,21,17)" stroke-width="1" opacity="1" d="M 89.5 73 L 92 73.5 L 89.5 74 L 89.5 73 Z " /><path fill="rgb(5,21,17)" stroke="rgb(5,21,17)" stroke-width="1" opacity="1" d="M 97.5 73 L 100 73.5 L 97.5 74 L 97.5 73 Z " /><path fill="rgb(5,21,17)" stroke="rgb(5,21,17)" stroke-width="1" opacity="1" d="M 101.5 73 L 104 73.5 L 101.5 74 L 101.5 73 Z " /><path fill="rgb(5,21,17)" stroke="rgb(5,21,17)" stroke-width="1" opacity="1" d="M 105.5 73 L 108 73.5 L 105.5 74 L 105.5 73 Z " /><path fill="rgb(5,21,17)" stroke="rgb(5,21,17)" stroke-width="1" opacity="1" d="M 109.5 73 L 112 73.5 L 109.5 74 L 109.5 73 Z " /><path fill="rgb(5,21,17)" stroke="rgb(5,21,17)" stroke-width="1" opacity="1" d="M 113.5 73 L 116 73.5 L 113.5 74 L 113.5 73 Z " /><path fill="rgb(5,21,17)" stroke="rgb(5,21,17)" stroke-width="1" opacity="1" d="M 117.5 73 L 120 73.5 L 117.5 74 L 117.5 73 Z " /><path fill="rgb(5,21,17)" stroke="rgb(5,21,17)" stroke-width="1" opacity="1" d="M 121.5 73 L 124 73.5 L 121.5 74 L 121.5 73 Z " /><path fill="rgb(5,21,17)" stroke="rgb(5,21,17)" stroke-width="1" opacity="1" d="M 125.5 73 L 128 73.5 L 125.5 74 L 125.5 73 Z " /><path fill="rgb(5,21,17)" stroke="rgb(5,21,17)" stroke-width="1" opacity="1" d="M 129.5 73 L 132 73.5 L 129.5 74 L 129.5 73 Z " /><path fill="rgb(5,21,17)" stroke="rgb(5,21,17)" stroke-width="1" opacity="1" d="M 133.5 73 L 136 73.5 L 133.5 74 L 133.5 73 Z " /><path fill="rgb(5,21,17)" stroke="rgb(5,21,17)" stroke-width="1" opacity="1" d="M 137.5 73 L 140 73.5 L 137.5 74 L 137.5 73 Z " /><path fill="rgb(5,21,17)" stroke="rgb(5,21,17)" stroke-width="1" opacity="1" d="M 0.5 75 L 18 75 L 18 82.5 L 17.5 87 L 0 87 L 0 79.5 L 0.5 75 Z " /><path fill="rgb(5,21,17)" stroke="rgb(5,21,17)" stroke-width="1" opacity="1" d="M 43 75 L 88 75.5 L 85 77.5 L 87 78.5 Q 86.3 76.3 88.5 77 L 90.5 75 L 137.5 75 L 137.5 76 L 135 77.5 L 137 78.5 Q 136.3 76.3 138.5 77 L 141 75.5 L 141 79.5 L 141 87 L 121.5 87 L 119 85.5 L 118.5 87 L 71.5 87 L 69 85.5 L 68.5 87 L 43.5 87 Q 45.1 85.3 42 83.5 L 43 75 Z M 83 78 L 82 80 L 85 79 L 83 78 Z M 133 78 L 132 80 L 135 79 L 133 78 Z M 80 80 L 79 82 L 81 81 L 80 80 Z M 130 80 L 129 82 L 131 81 L 130 80 Z M 77 82 L 78 84 Q 79 81 77 82 Z M 127 82 L 128 84 Q 129 81 127 82 Z M 74 83 L 72 86 Q 75 87 74 84 L 76 84 L 74 83 Z M 124 83 L 122 86 Q 125 87 124 84 L 126 84 L 124 83 Z " /><path fill="rgb(5,21,17)" stroke="rgb(5,21,17)" stroke-width="1" opacity="1" d="M 0.5 88 L 16 88.5 L 0.5 89 L 0.5 88 Z " /><path fill="rgb(5,21,17)" stroke="rgb(5,21,17)" stroke-width="1" opacity="1" d="M 43.5 88 L 66 88.5 L 43.5 89 L 43.5 88 Z " /><path fill="rgb(5,21,17)" stroke="rgb(5,21,17)" stroke-width="1" opacity="1" d="M 68.5 88 L 116 88.5 L 68.5 89 L 68.5 88 Z " /><path fill="rgb(5,21,17)" stroke="rgb(5,21,17)" stroke-width="1" opacity="1" d="M 118.5 88 L 141 88.5 L 118.5 89 L 118.5 88 Z " /><path fill="rgb(5,21,17)" stroke="rgb(5,21,17)" stroke-width="1" opacity="1" d="M 0.5 90 L 12 90.5 L 0.5 91 L 0.5 90 Z " /><path fill="rgb(5,21,17)" stroke="rgb(5,21,17)" stroke-width="1" opacity="1" d="M 14.5 90 L 18 90.5 L 14.5 91 L 14.5 90 Z " /><path fill="rgb(5,21,17)" stroke="rgb(5,21,17)" stroke-width="1" opacity="1" d="M 44.5 90 L 62 90.5 L 44.5 91 L 44.5 90 Z " /><path fill="rgb(5,21,17)" stroke="rgb(5,21,17)" stroke-width="1" opacity="1" d="M 64.5 90 L 112 90.5 L 64.5 91 L 64.5 90 Z " /><path fill="rgb(5,21,17)" stroke="rgb(5,21,17)" stroke-width="1" opacity="1" d="M 114.5 90 L 141 90.5 L 114.5 91 L 114.5 90 Z " /><path fill="rgb(4,16,13)" stroke="rgb(4,16,13)" stroke-width="1" opacity="1" d="M 0.5 133 L 38 133.5 L 34 134 L 33.5 136 L 26.5 136 L 26.5 137 Q 31.5 136 32.5 139 L 33 137 L 41 136.5 L 36 135.5 L 41 134.5 L 40.5 133 L 60 133.5 L 58 134.5 L 64.5 135 L 66.5 135 Q 72 136.5 73.5 134 Q 75 136.5 80.5 135 L 82.5 135 L 84 135.5 L 81 137.5 L 82.5 138 L 89 136.5 L 86 135.5 L 90.5 133 L 137.5 133 L 137.5 134 L 130 134.5 L 134 135.5 L 130 136.5 L 133 138.5 Q 132.1 135.5 136.5 137 L 136.5 135 L 141 135.5 L 138 136.5 L 141 137.5 L 141 141.5 L 141 157 L 100.5 157 L 98.5 156 L 97.5 157 L 50.5 157 L 48.5 156 L 47.5 157 L 0.5 157 L 0.5 156 L 3 154.5 L 1.5 154 L 0 154.5 L 0 141.5 L 1 140.5 L 0.5 133 Z M 3 134 L 3 135 L 9 135 L 3 134 Z M 11 134 L 11 135 L 17 135 L 11 134 Z M 19 134 L 19 135 L 25 135 L 19 134 Z M 27 134 L 27 135 L 33 135 L 27 134 Z M 43 134 L 43 135 L 49 135 L 43 134 Z M 51 134 L 51 135 L 57 135 L 51 134 Z M 91 134 L 91 135 L 97 135 L 91 134 Z M 99 134 L 99 135 L 105 135 L 99 134 Z M 107 134 L 107 135 L 113 135 L 107 134 Z M 115 134 L 115 135 L 121 135 L 115 134 Z M 123 134 L 123 135 L 129 135 L 123 134 Z M 3 136 L 3 137 L 9 137 L 3 136 Z M 11 136 L 11 137 L 17 137 L 11 136 Z M 19 136 L 19 137 L 25 137 L 19 136 Z M 43 136 L 43 137 L 49 137 L 43 136 Z M 51 136 L 51 137 L 57 137 L 51 136 Z M 59 136 L 59 137 L 65 137 L 59 136 Z M 67 136 L 67 137 L 73 137 L 67 136 Z M 75 136 L 75 137 L 81 137 L 75 136 Z M 91 136 L 91 137 L 97 137 L 91 136 Z M 99 136 L 99 137 L 105 137 L 99 136 Z M 107 136 L 107 137 L 113 137 L 107 136 Z M 115 136 L 115 137 L 121 137 L 115 136 Z M 123 136 L 123 137 L 129 137 L 123 136 Z M 29 138 Q 26 140 29 141 L 29 139 L 31 139 L 29 138 Z M 129 138 Q 126 140 129 141 L 129 139 L 131 139 L 129 138 Z M 24 140 L 24 142 L 27 141 L 24 140 Z M 76 140 L 75 142 L 77 141 L 76 140 Z M 124 140 L 124 142 L 127 141 L 124 140 Z M 21 143 L 20 145 L 22 144 L 21 143 Z M 71 143 L 70 145 L 72 144 L 71 143 Z M 121 143 L 120 145 L 122 144 L 121 143 Z M 14 147 L 13 149 L 15 148 L 14 147 Z M 64 147 L 63 149 L 65 148 L 64 147 Z M 114 147 L 113 149 L 115 148 L 114 147 Z M 7 151 L 6 153 L 8 152 L 7 151 Z M 57 151 L 56 153 L 58 152 L 57 151 Z M 107 151 L 106 153 L 108 152 L 107 151 Z M 52 154 L 51 156 L 53 155 L 52 154 Z M 102 154 L 101 156 L 103 155 L 102 154 Z " /><path fill="rgb(4,16,13)" stroke="rgb(4,16,13)" stroke-width="1" opacity="1" d="M 83.5 133 L 88 133.5 L 83.5 134 L 83.5 133 Z " /><path fill="rgb(4,23,17)" stroke="rgb(4,23,17)" stroke-width="1" opacity="1" d="M 29.5 138 L 28.5 140 L 29.5 138 Z " /><path fill="rgb(4,23,17)" stroke="rgb(4,23,17)" stroke-width="1" opacity="1" d="M 79.5 138 L 78.5 140 L 79.5 138 Z " /><path fill="rgb(4,23,17)" stroke="rgb(4,23,17)" stroke-width="1" opacity="1" d="M 129.5 138 L 128.5 140 L 129.5 138 Z " /><path fill="rgb(4,18,15)" stroke="rgb(4,18,15)" stroke-width="1" opacity="1" d="M 0.5 117 L 15 117.5 L 0.5 118 L 0.5 117 Z " /><path fill="rgb(4,18,15)" stroke="rgb(4,18,15)" stroke-width="1" opacity="1" d="M 17.5 117 L 31 117.5 L 17.5 118 L 17.5 117 Z " /><path fill="rgb(4,18,15)" stroke="rgb(4,18,15)" stroke-width="1" opacity="1" d="M 117.5 117 L 141 117.5 L 117.5 118 L 117.5 117 Z " /><path fill="rgb(4,18,15)" stroke="rgb(4,18,15)" stroke-width="1" opacity="1" d="M 0.5 119 L 12 119.5 L 0.5 120 L 0.5 119 Z " /><path fill="rgb(4,18,15)" stroke="rgb(4,18,15)" stroke-width="1" opacity="1" d="M 14.5 119 L 33 119.5 L 14.5 120 L 14.5 119 Z " /><path fill="rgb(4,18,15)" stroke="rgb(4,18,15)" stroke-width="1" opacity="1" d="M 114.5 119 L 141 119.5 L 114.5 120 L 114.5 119 Z " /><path fill="rgb(4,18,15)" stroke="rgb(4,18,15)" stroke-width="1" opacity="1" d="M 0.5 121 L 8 121.5 L 5 123.5 L 7 124.5 Q 6.3 122.3 8.5 123 L 10.5 121 L 34.5 121 L 38 123 Q 36.8 126 40.5 125 L 46 128.5 L 45.5 130 Q 50.5 129 51.5 132 L 53.5 132 L 56 132.5 L 41.5 133 L 39 131.5 L 38.5 133 L 0 133 L 0 127.5 L 1.5 127 L 5 124.5 L 2.5 124 L 0 125.5 L 0.5 121 Z M 44 129 L 43 131 L 41 132 L 44 132 Q 47 131 44 129 Z " /><path fill="rgb(4,18,15)" stroke="rgb(4,18,15)" stroke-width="1" opacity="1" d="M 110.5 121 L 141 121.5 L 141 125.5 L 140.5 132 L 139 131.5 L 138.5 133 L 91.5 133 L 91.5 132 L 98.5 129 L 100 129.5 Q 99.3 127.3 101.5 128 L 110.5 121 Z " /><path fill="rgb(4,18,15)" stroke="rgb(4,18,15)" stroke-width="1" opacity="1" d="M 2.5 134 L 9 134.5 L 2.5 135 L 2.5 134 Z " /><path fill="rgb(4,18,15)" stroke="rgb(4,18,15)" stroke-width="1" opacity="1" d="M 10.5 134 L 17 134.5 L 10.5 135 L 10.5 134 Z " /><path fill="rgb(4,18,15)" stroke="rgb(4,18,15)" stroke-width="1" opacity="1" d="M 18.5 134 L 25 134.5 L 18.5 135 L 18.5 134 Z " /><path fill="rgb(4,18,15)" stroke="rgb(4,18,15)" stroke-width="1" opacity="1" d="M 26.5 134 L 33 134.5 L 26.5 135 L 26.5 134 Z " /><path fill="rgb(4,18,15)" stroke="rgb(4,18,15)" stroke-width="1" opacity="1" d="M 38.5 134 L 41 134.5 L 38.5 135 L 38.5 134 Z " /><path fill="rgb(4,18,15)" stroke="rgb(4,18,15)" stroke-width="1" opacity="1" d="M 42.5 134 L 49 134.5 L 42.5 135 L 42.5 134 Z " /><path fill="rgb(4,18,15)" stroke="rgb(4,18,15)" stroke-width="1" opacity="1" d="M 50.5 134 L 57 134.5 L 50.5 135 L 50.5 134 Z " /><path fill="rgb(4,18,15)" stroke="rgb(4,18,15)" stroke-width="1" opacity="1" d="M 58.5 134 L 65 134.5 L 58.5 135 L 58.5 134 Z " /><path fill="rgb(4,18,15)" stroke="rgb(4,18,15)" stroke-width="1" opacity="1" d="M 66.5 134 L 73 134.5 L 66.5 135 L 66.5 134 Z " /><path fill="rgb(4,18,15)" stroke="rgb(4,18,15)" stroke-width="1" opacity="1" d="M 74.5 134 L 81 134.5 L 74.5 135 L 74.5 134 Z " /><path fill="rgb(4,18,15)" stroke="rgb(4,18,15)" stroke-width="1" opacity="1" d="M 82.5 134 L 86 134.5 L 82.5 135 L 82.5 134 Z " /><path fill="rgb(4,18,15)" stroke="rgb(4,18,15)" stroke-width="1" opacity="1" d="M 90.5 134 L 97 134.5 L 90.5 135 L 90.5 134 Z " /><path fill="rgb(4,18,15)" stroke="rgb(4,18,15)" stroke-width="1" opacity="1" d="M 98.5 134 L 105 134.5 L 98.5 135 L 98.5 134 Z " /><path fill="rgb(4,18,15)" stroke="rgb(4,18,15)" stroke-width="1" opacity="1" d="M 106.5 134 L 113 134.5 L 106.5 135 L 106.5 134 Z " /><path fill="rgb(4,18,15)" stroke="rgb(4,18,15)" stroke-width="1" opacity="1" d="M 114.5 134 L 121 134.5 L 114.5 135 L 114.5 134 Z " /><path fill="rgb(4,18,15)" stroke="rgb(4,18,15)" stroke-width="1" opacity="1" d="M 122.5 134 L 129 134.5 L 122.5 135 L 122.5 134 Z " /><path fill="rgb(4,18,15)" stroke="rgb(4,18,15)" stroke-width="1" opacity="1" d="M 130.5 134 L 136 134.5 L 130.5 135 L 130.5 134 Z " /><path fill="rgb(4,18,15)" stroke="rgb(4,18,15)" stroke-width="1" opacity="1" d="M 138.5 134 L 141 134.5 L 138.5 135 L 138.5 134 Z " /><path fill="rgb(4,18,15)" stroke="rgb(4,18,15)" stroke-width="1" opacity="1" d="M 2.5 136 L 9 136.5 L 2.5 137 L 2.5 136 Z " /><path fill="rgb(4,18,15)" stroke="rgb(4,18,15)" stroke-width="1" opacity="1" d="M 10.5 136 L 17 136.5 L 10.5 137 L 10.5 136 Z " /><path fill="rgb(4,18,15)" stroke="rgb(4,18,15)" stroke-width="1" opacity="1" d="M 18.5 136 L 25 136.5 L 18.5 137 L 18.5 136 Z " /><path fill="rgb(4,18,15)" stroke="rgb(4,18,15)" stroke-width="1" opacity="1" d="M 26.5 136 L 32 136.5 L 26.5 137 L 26.5 136 Z " /><path fill="rgb(4,18,15)" stroke="rgb(4,18,15)" stroke-width="1" opacity="1" d="M 34.5 136 L 41 136.5 L 34.5 137 L 34.5 136 Z " /><path fill="rgb(4,18,15)" stroke="rgb(4,18,15)" stroke-width="1" opacity="1" d="M 42.5 136 L 49 136.5 L 42.5 137 L 42.5 136 Z " /><path fill="rgb(4,18,15)" stroke="rgb(4,18,15)" stroke-width="1" opacity="1" d="M 50.5 136 L 57 136.5 L 50.5 137 L 50.5 136 Z " /><path fill="rgb(4,18,15)" stroke="rgb(4,18,15)" stroke-width="1" opacity="1" d="M 58.5 136 L 65 136.5 L 58.5 137 L 58.5 136 Z " /><path fill="rgb(4,18,15)" stroke="rgb(4,18,15)" stroke-width="1" opacity="1" d="M 66.5 136 L 73 136.5 L 66.5 137 L 66.5 136 Z " /><path fill="rgb(4,18,15)" stroke="rgb(4,18,15)" stroke-width="1" opacity="1" d="M 74.5 136 L 81 136.5 L 74.5 137 L 74.5 136 Z " /><path fill="rgb(4,18,15)" stroke="rgb(4,18,15)" stroke-width="1" opacity="1" d="M 84.5 136 L 89 136.5 L 84.5 137 L 84.5 136 Z " /><path fill="rgb(4,18,15)" stroke="rgb(4,18,15)" stroke-width="1" opacity="1" d="M 90.5 136 L 97 136.5 L 90.5 137 L 90.5 136 Z " /><path fill="rgb(4,18,15)" stroke="rgb(4,18,15)" stroke-width="1" opacity="1" d="M 98.5 136 L 105 136.5 L 98.5 137 L 98.5 136 Z " /><path fill="rgb(4,18,15)" stroke="rgb(4,18,15)" stroke-width="1" opacity="1" d="M 106.5 136 L 113 136.5 L 106.5 137 L 106.5 136 Z " /><path fill="rgb(4,18,15)" stroke="rgb(4,18,15)" stroke-width="1" opacity="1" d="M 114.5 136 L 121 136.5 L 114.5 137 L 114.5 136 Z " /><path fill="rgb(4,18,15)" stroke="rgb(4,18,15)" stroke-width="1" opacity="1" d="M 122.5 136 L 129 136.5 L 122.5 137 L 122.5 136 Z " /><path fill="rgb(4,18,15)" stroke="rgb(4,18,15)" stroke-width="1" opacity="1" d="M 134.5 136 L 137 136.5 L 134.5 137 L 134.5 136 Z " /><path fill="rgb(4,18,15)" stroke="rgb(4,18,15)" stroke-width="1" opacity="1" d="M 138.5 136 L 141 136.5 L 138.5 137 L 138.5 136 Z " /><path fill="rgb(240,240,240)" stroke="rgb(240,240,240)" stroke-width="1" opacity="1" d="M 72.5 29 Q 76 31.5 83.5 30 L 94.5 33 L 111 43 L 113 47.5 L 99.5 60 Q 93.2 51.8 81.5 49 L 65.5 49 L 55.5 53 L 50 57 L 44 66.5 L 42 72.5 L 41 84.5 L 44 96.5 L 50 106 L 55.5 110 L 65.5 114 L 81.5 114 Q 93.2 111.2 99.5 103 L 113 115.5 L 105.5 124 L 91.5 131 L 82.5 133 L 73.5 133 L 72.5 134 L 71.5 133 L 60.5 133 L 46.5 128 Q 35.9 122.6 29 113.5 L 20 95.5 L 19 90.5 L 19 71.5 Q 23.6 51.6 37.5 41 L 51.5 33 L 61.5 30 L 71.5 30 L 72.5 29 Z " /></svg>